<svg width="24" height="24" viewBox="0 0 24 24" fill="none" xmlns="http://www.w3.org/2000/svg">
<path d="M10.584 8.29699C11.408 5.49349 14.7455 4.33299 17.1305 6.02099C19.1935 7.47999 19.5395 10.404 17.8745 12.3045L16.3095 14.0915C13.7002 17.071 10.4048 19.3705 6.70796 20.7915L4.92896 21.476C4.6682 21.576 4.38029 21.5793 4.11727 21.4855C3.85426 21.3916 3.63351 21.2067 3.49494 20.9643C3.35638 20.7218 3.30915 20.4378 3.36179 20.1635C3.41443 19.8893 3.56347 19.6429 3.78196 19.469L5.17196 18.365C7.25439 16.7107 8.7746 14.4531 9.52446 11.9015L10.584 8.29699Z" fill="#F24822" stroke="#F24822" stroke-width="2"/>
<path d="M14.9209 5.34201C15.041 4.97758 15.2444 4.64619 15.5151 4.37423C15.7858 4.10227 16.1162 3.89724 16.4801 3.77546C16.8439 3.65367 17.2312 3.6185 17.6111 3.67273C17.9909 3.72696 18.3529 3.86911 18.6681 4.08785C18.9834 4.30659 19.2432 4.5959 19.427 4.93274C19.6107 5.26958 19.7133 5.64466 19.7266 6.02814C19.7399 6.41162 19.6635 6.7929 19.5035 7.14165C19.3435 7.4904 19.1043 7.79698 18.8049 8.03701" stroke="#F24822" stroke-width="2"/>
<path d="M21 2L19 4" stroke="#F24822" stroke-width="2" stroke-linecap="round"/>
</svg>
