<svg width="24" height="24" viewBox="0 0 24 24" fill="none" xmlns="http://www.w3.org/2000/svg">
<path d="M13.5 10.5C13.5 14.5 15 13.5 15.5 16C16.012 18.5615 13.869 21 11.25 21C8.6305 21 6.5 18.6125 6.5 16C6.5 13.695 7.75 12.25 9 11.5C10.25 10.75 11.5 10 11.5 8" stroke="#5FC182" stroke-width="2" stroke-linecap="round" stroke-linejoin="round"/>
<path d="M16.5 11.5C17 11.5 19.25 12.5 19.5 15C19.726 17.2615 18.25 20.75 12 21" stroke="#5FC182" stroke-width="2" stroke-linecap="round"/>
<path d="M8.00098 20C4.07748 20 2.00148 17.6485 2.00098 15C2.00098 12.1475 6.00098 9.5 7.00098 9C8.00098 8.5 8.50098 7.524 8.50098 6.5V4.5C8.50098 3.81 8.81098 3.5 9.50098 3.5H14.001C14.571 3.5 15.001 4 15.001 4.5V6C15.001 7.0255 15.636 7.8365 16.5445 8.289C16.9245 8.479 17.325 8.66 17.7345 8.8275C19.3895 9.5045 22.001 10.5725 22.001 13.5C22.001 15.9405 20.2995 18 19.001 18" stroke="#5FC182" stroke-width="2" stroke-linecap="round"/>
</svg>
