<svg width="24" height="24" viewBox="0 0 24 24" fill="none" xmlns="http://www.w3.org/2000/svg">
<path d="M10.584 8.297C11.408 5.4935 14.7455 4.333 17.1305 6.021C19.1935 7.48 19.5395 10.404 17.8745 12.3045L16.3095 14.0915C13.7002 17.071 10.4048 19.3705 6.70796 20.7915L4.92896 21.476C4.6682 21.576 4.38029 21.5793 4.11727 21.4855C3.85426 21.3916 3.63351 21.2067 3.49494 20.9643C3.35638 20.7218 3.30915 20.4378 3.36179 20.1635C3.41443 19.8893 3.56347 19.6429 3.78196 19.469L5.17196 18.365C7.25439 16.7107 8.7746 14.4532 9.52446 11.9015L10.584 8.297Z" stroke="#5FC182" stroke-width="2"/>
<path d="M14.9209 5.342C15.041 4.97756 15.2444 4.64618 15.5151 4.37421C15.7858 4.10225 16.1162 3.89722 16.4801 3.77544C16.8439 3.65366 17.2312 3.61848 17.6111 3.67272C17.9909 3.72695 18.3529 3.86909 18.6681 4.08783C18.9834 4.30658 19.2432 4.59588 19.427 4.93272C19.6107 5.26957 19.7133 5.64465 19.7266 6.02812C19.7399 6.4116 19.6635 6.79288 19.5035 7.14163C19.3435 7.49038 19.1043 7.79697 18.8049 8.037" stroke="#5FC182" stroke-width="2"/>
<path d="M21 2L19 4" stroke="#5FC182" stroke-width="2" stroke-linecap="round"/>
</svg>
