<svg width="24" height="24" viewBox="0 0 24 24" fill="none" xmlns="http://www.w3.org/2000/svg">
<path d="M12 22C17.523 22 22 18.3065 22 13.75C22 10.529 19.7625 7.8505 16.5 6.492L14.75 7.25L15 10L11.75 9L8.5 10V7.25L7 6.492C4.011 7.9185 2 10.6965 2 13.75C2 18.3065 6.477 22 12 22Z" stroke="#5FC182" stroke-width="2" stroke-linecap="round" stroke-linejoin="round"/>
<path d="M11.75 2L13.6545 4.5585L18 4.955L14.8315 7.2415L15.75 10.5L11.75 9L7.75 10.5L8.6685 7.2415L5.5 4.955L9.8455 4.5585L11.75 2Z" stroke="#5FC182" stroke-width="2" stroke-linecap="round" stroke-linejoin="round"/>
</svg>
