<svg width="326" height="130" viewBox="0 0 326 130" fill="none" xmlns="http://www.w3.org/2000/svg">
<path d="M102.77 0.552734H0.229492V114.123L52.7469 129.388L102.77 114.123V0.552734Z" fill="white"/>
<path d="M213.899 0.552734H111.359V114.123L163.877 129.388L213.899 114.123V0.552734Z" fill="white"/>
<path d="M213.899 0.552734H111.359V114.123L163.877 129.388L213.899 114.123V0.552734Z" fill="white"/>
<path d="M325.029 0.552734H222.489V114.123L275.007 129.388L325.029 114.123V0.552734Z" fill="white"/>
<path d="M39.2585 68.4706V59.7434H41.1037V63.5914H41.2188L44.3594 59.7434H46.571L43.3324 63.651L46.6094 68.4706H44.402L42.0114 64.8826L41.1037 65.9905V68.4706H39.2585ZM49.9748 68.5985C49.3043 68.5985 48.7276 68.4564 48.2447 68.1723C47.7646 67.8854 47.3952 67.4877 47.1367 66.9792C46.881 66.4706 46.7532 65.8854 46.7532 65.2235C46.7532 64.553 46.8825 63.965 47.141 63.4593C47.4023 62.9508 47.7731 62.5544 48.2532 62.2704C48.7333 61.9834 49.3043 61.84 49.9663 61.84C50.5373 61.84 51.0373 61.9437 51.4663 62.151C51.8952 62.3584 52.2347 62.6496 52.4847 63.0246C52.7347 63.3996 52.8725 63.84 52.8981 64.3456H51.185C51.1367 64.0189 51.0089 63.7562 50.8015 63.5573C50.5969 63.3556 50.3285 63.2547 49.9961 63.2547C49.7148 63.2547 49.4691 63.3314 49.2589 63.4848C49.0515 63.6354 48.8896 63.8556 48.7731 64.1454C48.6566 64.4351 48.5984 64.786 48.5984 65.1979C48.5984 65.6155 48.6552 65.9706 48.7688 66.2633C48.8853 66.5559 49.0487 66.7789 49.2589 66.9323C49.4691 67.0857 49.7148 67.1624 49.9961 67.1624C50.2035 67.1624 50.3896 67.1198 50.5543 67.0346C50.7219 66.9493 50.8597 66.8258 50.9677 66.6638C51.0785 66.4991 51.1509 66.3016 51.185 66.0715H52.8981C52.8697 66.5715 52.7333 67.0118 52.489 67.3925C52.2475 67.7704 51.9137 68.0658 51.4876 68.2789C51.0614 68.4919 50.5572 68.5985 49.9748 68.5985ZM55.9268 68.5942C55.5092 68.5942 55.1371 68.5218 54.8104 68.3769C54.4837 68.2292 54.2251 68.0118 54.0348 67.7249C53.8473 67.4351 53.7536 67.0743 53.7536 66.6425C53.7536 66.2789 53.8203 65.9735 53.9538 65.7263C54.0874 65.4792 54.2692 65.2803 54.4993 65.1297C54.7294 64.9792 54.9908 64.8655 55.2834 64.7888C55.5788 64.7121 55.8885 64.6581 56.2124 64.6269C56.593 64.5871 56.8999 64.5502 57.1328 64.5161C57.3658 64.4792 57.5348 64.4252 57.6399 64.3542C57.745 64.2831 57.7976 64.178 57.7976 64.0388V64.0133C57.7976 63.7434 57.7124 63.5346 57.5419 63.3868C57.3743 63.2391 57.1357 63.1652 56.826 63.1652C56.4993 63.1652 56.2393 63.2377 56.0462 63.3826C55.853 63.5246 55.7251 63.7036 55.6626 63.9195L53.9837 63.7831C54.0689 63.3854 54.2365 63.0417 54.4865 62.7519C54.7365 62.4593 55.0589 62.2348 55.4538 62.0786C55.8516 61.9195 56.3118 61.84 56.8345 61.84C57.1982 61.84 57.5462 61.8826 57.8786 61.9678C58.2138 62.053 58.5107 62.1851 58.7692 62.3641C59.0305 62.5431 59.2365 62.7732 59.3871 63.0544C59.5376 63.3329 59.6129 63.6667 59.6129 64.0559V68.4706H57.8913V67.563H57.8402C57.7351 67.7675 57.5945 67.9479 57.4183 68.1042C57.2422 68.2576 57.0305 68.3783 56.7834 68.4664C56.5362 68.5516 56.2507 68.5942 55.9268 68.5942ZM56.4467 67.3414C56.7138 67.3414 56.9496 67.2888 57.1541 67.1837C57.3587 67.0758 57.5192 66.9309 57.6357 66.7491C57.7521 66.5672 57.8104 66.3613 57.8104 66.1312V65.4366C57.7536 65.4735 57.6754 65.5076 57.576 65.5388C57.4794 65.5672 57.37 65.5942 57.2479 65.6198C57.1257 65.6425 57.0036 65.6638 56.8814 65.6837C56.7592 65.7008 56.6484 65.7164 56.549 65.7306C56.3359 65.7618 56.1499 65.8116 55.9908 65.8797C55.8317 65.9479 55.7081 66.0402 55.62 66.1567C55.532 66.2704 55.4879 66.4124 55.4879 66.5829C55.4879 66.83 55.5774 67.0189 55.7564 67.1496C55.9382 67.2775 56.1683 67.3414 56.4467 67.3414ZM62.8366 59.7434V68.4706H61.0213V59.7434H62.8366Z" fill="#A7A7A7"/>
<path d="M44.1882 40.5343H41.3885C41.3374 40.1721 41.233 39.8504 41.0753 39.5691C40.9176 39.2836 40.7152 39.0407 40.468 38.8404C40.2209 38.6401 39.9354 38.4867 39.6115 38.3802C39.2919 38.2736 38.9446 38.2204 38.5696 38.2204C37.892 38.2204 37.3018 38.3887 36.799 38.7254C36.2962 39.0577 35.9063 39.5435 35.6293 40.1827C35.3523 40.8177 35.2138 41.589 35.2138 42.4967C35.2138 43.4299 35.3523 44.214 35.6293 44.8489C35.9105 45.4839 36.3026 45.9633 36.8054 46.2871C37.3082 46.611 37.8899 46.7729 38.5504 46.7729C38.9212 46.7729 39.2642 46.7239 39.5795 46.6259C39.8991 46.5279 40.1825 46.3852 40.4297 46.1977C40.6768 46.0059 40.8814 45.7736 41.0433 45.5009C41.2095 45.2282 41.3246 44.9171 41.3885 44.5677L44.1882 44.5805C44.1158 45.1813 43.9347 45.7609 43.6449 46.3191C43.3594 46.8731 42.9737 47.3695 42.4879 47.8084C42.0064 48.2431 41.4311 48.5883 40.7621 48.844C40.0973 49.0954 39.3452 49.2211 38.5057 49.2211C37.3381 49.2211 36.294 48.9569 35.3736 48.4285C34.4574 47.9001 33.733 47.1352 33.2003 46.1337C32.6719 45.1323 32.4077 43.92 32.4077 42.4967C32.4077 41.0691 32.6761 39.8546 33.2131 38.8532C33.75 37.8518 34.4787 37.089 35.3991 36.5648C36.3196 36.0364 37.3551 35.7722 38.5057 35.7722C39.2642 35.7722 39.9673 35.8788 40.6151 36.0918C41.267 36.3049 41.8445 36.616 42.3473 37.0251C42.8501 37.4299 43.2592 37.9263 43.5746 38.5144C43.8942 39.1025 44.0987 39.7758 44.1882 40.5343ZM48.9215 49.2275C48.2951 49.2275 47.7369 49.1188 47.2468 48.9015C46.7567 48.6799 46.369 48.3539 46.0835 47.9235C45.8022 47.4888 45.6616 46.9477 45.6616 46.2999C45.6616 45.7545 45.7617 45.2964 45.962 44.9256C46.1623 44.5549 46.435 44.2566 46.7802 44.0308C47.1254 43.8049 47.5174 43.6344 47.9563 43.5194C48.3995 43.4043 48.864 43.3234 49.3498 43.2765C49.9208 43.2168 50.381 43.1614 50.7305 43.1103C51.0799 43.0549 51.3335 42.9739 51.4911 42.8674C51.6488 42.7609 51.7276 42.6032 51.7276 42.3944V42.356C51.7276 41.9512 51.5998 41.638 51.3441 41.4164C51.0927 41.1948 50.7347 41.084 50.2702 41.084C49.7802 41.084 49.3903 41.1927 49.1005 41.41C48.8107 41.6231 48.619 41.8915 48.5252 42.2154L46.0067 42.0109C46.1346 41.4143 46.386 40.8986 46.761 40.464C47.136 40.0251 47.6197 39.6884 48.212 39.454C48.8086 39.2154 49.4989 39.0961 50.283 39.0961C50.8285 39.0961 51.3505 39.16 51.8491 39.2879C52.3519 39.4157 52.7972 39.6138 53.185 39.8823C53.5771 40.1508 53.886 40.4959 54.1119 40.9178C54.3377 41.3354 54.4506 41.8361 54.4506 42.42V49.0421H51.8683V47.6806H51.7915C51.6339 47.9874 51.4229 48.258 51.1587 48.4924C50.8945 48.7225 50.5771 48.9036 50.2063 49.0357C49.8356 49.1636 49.4073 49.2275 48.9215 49.2275ZM49.7013 47.3482C50.1019 47.3482 50.4556 47.2694 50.7624 47.1117C51.0692 46.9498 51.31 46.7325 51.4847 46.4597C51.6594 46.187 51.7468 45.8781 51.7468 45.5329V44.491C51.6616 44.5464 51.5444 44.5975 51.3952 44.6444C51.2504 44.687 51.0863 44.7275 50.9031 44.7658C50.7198 44.7999 50.5366 44.8319 50.3533 44.8617C50.1701 44.8873 50.0039 44.9107 49.8548 44.932C49.5352 44.9789 49.256 45.0535 49.0174 45.1558C48.7788 45.258 48.5934 45.3965 48.4613 45.5712C48.3292 45.7417 48.2631 45.9548 48.2631 46.2104C48.2631 46.5812 48.3974 46.8646 48.6658 47.0606C48.9386 47.2523 49.2837 47.3482 49.7013 47.3482ZM59.2862 35.9512V49.0421H56.5632V35.9512H59.2862ZM65.9036 49.2339C64.9107 49.2339 64.052 49.0229 63.3276 48.6011C62.6074 48.1749 62.0513 47.5826 61.6593 46.8241C61.2672 46.0613 61.0712 45.1771 61.0712 44.1714C61.0712 43.1572 61.2672 42.2708 61.6593 41.5123C62.0513 40.7495 62.6074 40.1572 63.3276 39.7353C64.052 39.3092 64.9107 39.0961 65.9036 39.0961C66.8965 39.0961 67.753 39.3092 68.4732 39.7353C69.1976 40.1572 69.7559 40.7495 70.1479 41.5123C70.54 42.2708 70.736 43.1572 70.736 44.1714C70.736 45.1771 70.54 46.0613 70.1479 46.8241C69.7559 47.5826 69.1976 48.1749 68.4732 48.6011C67.753 49.0229 66.8965 49.2339 65.9036 49.2339ZM65.9164 47.1245C66.3681 47.1245 66.7452 46.9967 67.0478 46.741C67.3503 46.481 67.5783 46.1273 67.7317 45.6799C67.8894 45.2325 67.9682 44.7232 67.9682 44.1522C67.9682 43.5812 67.8894 43.0719 67.7317 42.6245C67.5783 42.1771 67.3503 41.8234 67.0478 41.5634C66.7452 41.3035 66.3681 41.1735 65.9164 41.1735C65.4604 41.1735 65.0769 41.3035 64.7658 41.5634C64.459 41.8234 64.2267 42.1771 64.0691 42.6245C63.9157 43.0719 63.839 43.5812 63.839 44.1522C63.839 44.7232 63.9157 45.2325 64.0691 45.6799C64.2267 46.1273 64.459 46.481 64.7658 46.741C65.0769 46.9967 65.4604 47.1245 65.9164 47.1245Z" fill="black"/>
<path d="M34.5071 79.3537V93.8991H31.4318V82.2727H31.3466L28.0156 84.3608V81.6335L31.6165 79.3537H34.5071ZM43.3406 94.098C42.2799 94.098 41.3353 93.9157 40.5067 93.5511C39.6829 93.1818 39.0318 92.6752 38.5536 92.0312C38.0801 91.3825 37.8363 90.6344 37.8221 89.7869H40.9187C40.9376 90.142 41.0536 90.4545 41.2667 90.7244C41.4845 90.9895 41.7733 91.1955 42.1332 91.3423C42.493 91.4891 42.8978 91.5625 43.3477 91.5625C43.8164 91.5625 44.2307 91.4796 44.5906 91.3139C44.9504 91.1482 45.2321 90.9185 45.4357 90.625C45.6393 90.3314 45.7411 89.9929 45.7411 89.6093C45.7411 89.2211 45.6322 88.8778 45.4144 88.5795C45.2013 88.2765 44.8936 88.0397 44.4911 87.8693C44.0934 87.6988 43.6199 87.6136 43.0707 87.6136H41.7141V85.3551H43.0707C43.5347 85.3551 43.9442 85.2746 44.2994 85.1136C44.6592 84.9526 44.9386 84.7301 45.1374 84.446C45.3363 84.1572 45.4357 83.821 45.4357 83.4375C45.4357 83.0729 45.3481 82.7533 45.1729 82.4787C45.0025 82.1993 44.761 81.9815 44.4485 81.8252C44.1407 81.669 43.7809 81.5909 43.369 81.5909C42.9523 81.5909 42.5711 81.6666 42.2255 81.8181C41.8799 81.9649 41.6029 82.1756 41.3945 82.4502C41.1862 82.7249 41.0749 83.0468 41.0607 83.4162H38.1133C38.1275 82.5781 38.3666 81.8394 38.8306 81.2002C39.2946 80.561 39.9196 80.0615 40.7056 79.7017C41.4963 79.3371 42.3888 79.1548 43.3832 79.1548C44.387 79.1548 45.2653 79.3371 46.0181 79.7017C46.771 80.0662 47.3557 80.5587 47.7724 81.1789C48.1938 81.7945 48.4021 82.4858 48.3974 83.2528C48.4021 84.0672 48.1488 84.7466 47.6374 85.2912C47.1308 85.8357 46.4703 86.1813 45.6559 86.3281V86.4417C46.726 86.579 47.5404 86.9507 48.0991 87.5568C48.6625 88.1581 48.9419 88.9109 48.9371 89.8153C48.9419 90.6439 48.7028 91.3802 48.2198 92.0241C47.7416 92.668 47.0811 93.1747 46.2383 93.544C45.3955 93.9133 44.4296 94.098 43.3406 94.098ZM51.723 93.8991L57.7528 81.9673V81.8679H50.7287V79.3537H60.9347V81.9034L54.8977 93.8991H51.723ZM68.4329 94.2187C67.2113 94.214 66.1602 93.9133 65.2795 93.3167C64.4035 92.7201 63.7288 91.856 63.2553 90.7244C62.7866 89.5928 62.5546 88.2315 62.5593 86.6406C62.5593 85.0544 62.7937 83.7026 63.2624 82.5852C63.7359 81.4678 64.4106 80.6179 65.2866 80.0355C66.1673 79.4484 67.216 79.1548 68.4329 79.1548C69.6497 79.1548 70.6961 79.4484 71.5721 80.0355C72.4528 80.6226 73.1299 81.4749 73.6033 82.5923C74.0768 83.705 74.3112 85.0544 74.3065 86.6406C74.3065 88.2362 74.0697 89.5999 73.5962 90.7315C73.1275 91.8631 72.4551 92.7272 71.5792 93.3238C70.7032 93.9204 69.6545 94.2187 68.4329 94.2187ZM68.4329 91.669C69.2662 91.669 69.9315 91.25 70.4286 90.4119C70.9258 89.5738 71.172 88.3167 71.1673 86.6406C71.1673 85.5374 71.0536 84.6188 70.8263 83.8849C70.6038 83.151 70.2866 82.5994 69.8746 82.2301C69.4674 81.8608 68.9869 81.6761 68.4329 81.6761C67.6043 81.6761 66.9414 82.0904 66.4442 82.919C65.9471 83.7476 65.6961 84.9881 65.6914 86.6406C65.6914 87.758 65.8027 88.6908 66.0252 89.4389C66.2525 90.1823 66.5721 90.741 66.984 91.115C67.396 91.4843 67.8789 91.669 68.4329 91.669Z" fill="#EF4316"/>
<path d="M162.302 71.0616C161.714 71.0616 161.21 70.9806 160.789 70.8187C160.372 70.6596 160.039 70.4422 159.792 70.1667C159.545 69.8911 159.385 69.5814 159.311 69.2377L160.99 69.0118C161.041 69.1425 161.122 69.2647 161.233 69.3783C161.343 69.4919 161.49 69.5829 161.672 69.651C161.856 69.7221 162.081 69.7576 162.345 69.7576C162.74 69.7576 163.065 69.661 163.321 69.4678C163.579 69.2775 163.708 68.9579 163.708 68.509V67.3116H163.632C163.552 67.4934 163.433 67.6652 163.274 67.8272C163.115 67.9891 162.91 68.1212 162.66 68.2235C162.41 68.3258 162.112 68.3769 161.765 68.3769C161.274 68.3769 160.826 68.2633 160.423 68.036C160.022 67.8059 159.703 67.455 159.464 66.9834C159.228 66.509 159.11 65.9096 159.11 65.1851C159.11 64.4437 159.231 63.8243 159.473 63.3272C159.714 62.83 160.035 62.4579 160.436 62.2107C160.839 61.9635 161.281 61.84 161.761 61.84C162.127 61.84 162.434 61.9025 162.681 62.0275C162.929 62.1496 163.127 62.303 163.278 62.4877C163.431 62.6695 163.549 62.8485 163.632 63.0246H163.7V61.9252H165.502V68.5346C165.502 69.0914 165.366 69.5573 165.093 69.9323C164.821 70.3073 164.443 70.5885 163.96 70.776C163.48 70.9664 162.927 71.0616 162.302 71.0616ZM162.341 67.0133C162.633 67.0133 162.88 66.9408 163.082 66.7959C163.287 66.6482 163.443 66.438 163.551 66.1652C163.662 65.8897 163.717 65.5601 163.717 65.1766C163.717 64.7931 163.663 64.4607 163.555 64.1794C163.447 63.8954 163.291 63.6752 163.086 63.5189C162.882 63.3627 162.633 63.2846 162.341 63.2846C162.042 63.2846 161.791 63.3655 161.586 63.5275C161.382 63.6866 161.227 63.9081 161.122 64.1922C161.017 64.4763 160.964 64.8044 160.964 65.1766C160.964 65.5544 161.017 65.8812 161.122 66.1567C161.23 66.4294 161.385 66.6411 161.586 66.7917C161.791 66.9394 162.042 67.0133 162.341 67.0133Z" fill="#A7A7A7"/>
<path d="M149.767 49.0421V35.9512H158.434V38.2332H152.534V41.3525H157.859V43.6344H152.534V49.0421H149.767ZM162.922 49.2275C162.295 49.2275 161.737 49.1188 161.247 48.9015C160.757 48.6799 160.369 48.3539 160.083 47.9235C159.802 47.4888 159.662 46.9477 159.662 46.2999C159.662 45.7545 159.762 45.2964 159.962 44.9256C160.162 44.5549 160.435 44.2566 160.78 44.0308C161.125 43.8049 161.517 43.6344 161.956 43.5194C162.4 43.4043 162.864 43.3234 163.35 43.2765C163.921 43.2168 164.381 43.1614 164.73 43.1103C165.08 43.0549 165.333 42.9739 165.491 42.8674C165.649 42.7609 165.728 42.6032 165.728 42.3944V42.356C165.728 41.9512 165.6 41.638 165.344 41.4164C165.093 41.1948 164.735 41.084 164.27 41.084C163.78 41.084 163.39 41.1927 163.1 41.41C162.811 41.6231 162.619 41.8915 162.525 42.2154L160.007 42.0109C160.135 41.4143 160.386 40.8986 160.761 40.464C161.136 40.0251 161.62 39.6884 162.212 39.454C162.809 39.2154 163.499 39.0961 164.283 39.0961C164.828 39.0961 165.35 39.16 165.849 39.2879C166.352 39.4157 166.797 39.6138 167.185 39.8823C167.577 40.1508 167.886 40.4959 168.112 40.9178C168.338 41.3354 168.451 41.8361 168.451 42.42V49.0421H165.868V47.6806H165.792C165.634 47.9874 165.423 48.258 165.159 48.4924C164.895 48.7225 164.577 48.9036 164.206 49.0357C163.836 49.1636 163.407 49.2275 162.922 49.2275ZM163.701 47.3482C164.102 47.3482 164.456 47.2694 164.762 47.1117C165.069 46.9498 165.31 46.7325 165.485 46.4597C165.659 46.187 165.747 45.8781 165.747 45.5329V44.491C165.662 44.5464 165.544 44.5975 165.395 44.6444C165.25 44.687 165.086 44.7275 164.903 44.7658C164.72 44.7999 164.537 44.8319 164.353 44.8617C164.17 44.8873 164.004 44.9107 163.855 44.932C163.535 44.9789 163.256 45.0535 163.017 45.1558C162.779 45.258 162.593 45.3965 162.461 45.5712C162.329 45.7417 162.263 45.9548 162.263 46.2104C162.263 46.5812 162.397 46.8646 162.666 47.0606C162.939 47.2523 163.284 47.3482 163.701 47.3482ZM175.786 39.2239V41.2694H169.873V39.2239H175.786ZM171.215 36.8717H173.938V46.0251C173.938 46.2765 173.977 46.4725 174.053 46.6131C174.13 46.7495 174.237 46.8454 174.373 46.9008C174.513 46.9562 174.675 46.9839 174.859 46.9839C174.987 46.9839 175.114 46.9732 175.242 46.9519C175.37 46.9263 175.468 46.9072 175.536 46.8944L175.964 48.9207C175.828 48.9633 175.636 49.0123 175.389 49.0677C175.142 49.1273 174.842 49.1636 174.488 49.1763C173.832 49.2019 173.256 49.1146 172.762 48.9143C172.272 48.714 171.891 48.4029 171.618 47.981C171.345 47.5592 171.211 47.0265 171.215 46.383V36.8717Z" fill="black"/>
<path d="M155.571 79.1548C156.319 79.1548 157.038 79.2803 157.73 79.5312C158.426 79.7822 159.046 80.1823 159.591 80.7315C160.14 81.2807 160.573 82.0099 160.89 82.919C161.212 83.8234 161.376 84.9337 161.38 86.25C161.38 87.4858 161.241 88.589 160.961 89.5596C160.687 90.5255 160.291 91.347 159.775 92.0241C159.259 92.7012 158.636 93.2173 157.907 93.5724C157.178 93.9228 156.364 94.098 155.464 94.098C154.493 94.098 153.636 93.9109 152.893 93.5369C152.15 93.1581 151.551 92.6444 151.096 91.9957C150.646 91.3423 150.374 90.6084 150.279 89.794H153.312C153.431 90.3243 153.679 90.7362 154.058 91.0298C154.437 91.3186 154.905 91.463 155.464 91.463C156.411 91.463 157.131 91.0511 157.623 90.2272C158.116 89.3986 158.364 88.2646 158.369 86.8252H158.27C158.052 87.2514 157.758 87.6183 157.389 87.9261C157.02 88.2291 156.596 88.4635 156.118 88.6292C155.644 88.7949 155.14 88.8778 154.605 88.8778C153.748 88.8778 152.983 88.6766 152.311 88.2741C151.638 87.8716 151.108 87.3177 150.72 86.6122C150.332 85.9067 150.137 85.1018 150.137 84.1974C150.133 83.222 150.358 82.3532 150.812 81.5909C151.267 80.8286 151.901 80.232 152.716 79.8011C153.535 79.3655 154.486 79.1501 155.571 79.1548ZM155.592 81.5696C155.114 81.5696 154.688 81.6832 154.314 81.9105C153.944 82.1377 153.651 82.4431 153.433 82.8267C153.22 83.2102 153.116 83.6387 153.12 84.1122C153.12 84.5904 153.225 85.0213 153.433 85.4048C153.646 85.7836 153.935 86.0866 154.299 86.3139C154.669 86.5364 155.09 86.6477 155.564 86.6477C155.919 86.6477 156.248 86.5814 156.551 86.4488C156.854 86.3162 157.117 86.134 157.339 85.9019C157.566 85.6652 157.744 85.393 157.872 85.0852C158 84.7774 158.064 84.4507 158.064 84.1051C158.059 83.6458 157.95 83.2244 157.737 82.8409C157.524 82.4573 157.23 82.1496 156.856 81.9176C156.482 81.6856 156.061 81.5696 155.592 81.5696ZM168.887 94.098C167.827 94.098 166.882 93.9157 166.054 93.5511C165.23 93.1818 164.579 92.6752 164.1 92.0312C163.627 91.3825 163.383 90.6344 163.369 89.7869H166.466C166.484 90.142 166.6 90.4545 166.814 90.7244C167.031 90.9895 167.32 91.1955 167.68 91.3423C168.04 91.4891 168.445 91.5625 168.895 91.5625C169.363 91.5625 169.778 91.4796 170.137 91.3139C170.497 91.1482 170.779 90.9185 170.983 90.625C171.186 90.3314 171.288 89.9929 171.288 89.6093C171.288 89.2211 171.179 88.8778 170.961 88.5795C170.748 88.2765 170.44 88.0397 170.038 87.8693C169.64 87.6988 169.167 87.6136 168.618 87.6136H167.261V85.3551H168.618C169.082 85.3551 169.491 85.2746 169.846 85.1136C170.206 84.9526 170.485 84.7301 170.684 84.446C170.883 84.1572 170.983 83.821 170.983 83.4375C170.983 83.0729 170.895 82.7533 170.72 82.4787C170.549 82.1993 170.308 81.9815 169.995 81.8252C169.688 81.669 169.328 81.5909 168.916 81.5909C168.499 81.5909 168.118 81.6666 167.772 81.8181C167.427 81.9649 167.15 82.1756 166.941 82.4502C166.733 82.7249 166.622 83.0468 166.608 83.4162H163.66C163.674 82.5781 163.913 81.8394 164.377 81.2002C164.842 80.561 165.467 80.0615 166.252 79.7017C167.043 79.3371 167.936 79.1548 168.93 79.1548C169.934 79.1548 170.812 79.3371 171.565 79.7017C172.318 80.0662 172.903 80.5587 173.319 81.1789C173.741 81.7945 173.949 82.4858 173.944 83.2528C173.949 84.0672 173.696 84.7466 173.184 85.2912C172.678 85.8357 172.017 86.1813 171.203 86.3281V86.4417C172.273 86.579 173.087 86.9507 173.646 87.5568C174.209 88.1581 174.489 88.9109 174.484 89.8153C174.489 90.6439 174.25 91.3802 173.767 92.0241C173.288 92.668 172.628 93.1747 171.785 93.544C170.942 93.9133 169.976 94.098 168.887 94.098Z" fill="#EF4316"/>
<path d="M273.433 71.0616C272.845 71.0616 272.341 70.9806 271.92 70.8187C271.503 70.6596 271.17 70.4422 270.923 70.1667C270.676 69.8911 270.515 69.5814 270.442 69.2377L272.121 69.0118C272.172 69.1425 272.253 69.2647 272.363 69.3783C272.474 69.4919 272.621 69.5829 272.802 69.651C272.987 69.7221 273.211 69.7576 273.476 69.7576C273.871 69.7576 274.196 69.661 274.452 69.4678C274.71 69.2775 274.839 68.9579 274.839 68.509V67.3116H274.763C274.683 67.4934 274.564 67.6652 274.405 67.8272C274.246 67.9891 274.041 68.1212 273.791 68.2235C273.541 68.3258 273.243 68.3769 272.896 68.3769C272.405 68.3769 271.957 68.2633 271.554 68.036C271.153 67.8059 270.834 67.455 270.595 66.9834C270.359 66.509 270.241 65.9096 270.241 65.1851C270.241 64.4437 270.362 63.8243 270.604 63.3272C270.845 62.83 271.166 62.4579 271.567 62.2107C271.97 61.9635 272.412 61.84 272.892 61.84C273.258 61.84 273.565 61.9025 273.812 62.0275C274.059 62.1496 274.258 62.303 274.409 62.4877C274.562 62.6695 274.68 62.8485 274.763 63.0246H274.831V61.9252H276.633V68.5346C276.633 69.0914 276.497 69.5573 276.224 69.9323C275.952 70.3073 275.574 70.5885 275.091 70.776C274.611 70.9664 274.058 71.0616 273.433 71.0616ZM273.471 67.0133C273.764 67.0133 274.011 66.9408 274.213 66.7959C274.417 66.6482 274.574 66.438 274.682 66.1652C274.792 65.8897 274.848 65.5601 274.848 65.1766C274.848 64.7931 274.794 64.4607 274.686 64.1794C274.578 63.8954 274.422 63.6752 274.217 63.5189C274.013 63.3627 273.764 63.2846 273.471 63.2846C273.173 63.2846 272.922 63.3655 272.717 63.5275C272.513 63.6866 272.358 63.9081 272.253 64.1922C272.148 64.4763 272.095 64.8044 272.095 65.1766C272.095 65.5544 272.148 65.8812 272.253 66.1567C272.361 66.4294 272.515 66.6411 272.717 66.7917C272.922 66.9394 273.173 67.0133 273.471 67.0133Z" fill="#A7A7A7"/>
<path d="M242.898 49.0421V35.9512H248.062C249.055 35.9512 249.901 36.1408 250.6 36.5201C251.299 36.8951 251.831 37.4171 252.198 38.0861C252.569 38.7509 252.754 39.518 252.754 40.3873C252.754 41.2566 252.567 42.0236 252.192 42.6884C251.817 43.3532 251.273 43.8709 250.562 44.2417C249.854 44.6124 248.998 44.7978 247.992 44.7978H244.7V42.5798H247.545C248.077 42.5798 248.516 42.4881 248.861 42.3049C249.211 42.1174 249.471 41.8596 249.641 41.5315C249.816 41.1991 249.903 40.8177 249.903 40.3873C249.903 39.9526 249.816 39.5734 249.641 39.2495C249.471 38.9214 249.211 38.6678 248.861 38.4888C248.512 38.3056 248.069 38.214 247.532 38.214H245.665V49.0421H242.898ZM254.501 49.0421V39.2239H257.141V40.937H257.243C257.422 40.3276 257.722 39.8674 258.144 39.5563C258.566 39.241 259.052 39.0833 259.602 39.0833C259.738 39.0833 259.885 39.0918 260.043 39.1089C260.2 39.1259 260.339 39.1494 260.458 39.1792V41.5954C260.33 41.557 260.153 41.5229 259.928 41.4931C259.702 41.4633 259.495 41.4484 259.308 41.4484C258.907 41.4484 258.549 41.5357 258.234 41.7104C257.923 41.8809 257.675 42.1195 257.492 42.4263C257.313 42.7332 257.224 43.0869 257.224 43.4874V49.0421H254.501ZM265.845 49.2339C264.852 49.2339 263.993 49.0229 263.269 48.6011C262.549 48.1749 261.993 47.5826 261.601 46.8241C261.209 46.0613 261.013 45.1771 261.013 44.1714C261.013 43.1572 261.209 42.2708 261.601 41.5123C261.993 40.7495 262.549 40.1572 263.269 39.7353C263.993 39.3092 264.852 39.0961 265.845 39.0961C266.838 39.0961 267.694 39.3092 268.415 39.7353C269.139 40.1572 269.697 40.7495 270.089 41.5123C270.481 42.2708 270.677 43.1572 270.677 44.1714C270.677 45.1771 270.481 46.0613 270.089 46.8241C269.697 47.5826 269.139 48.1749 268.415 48.6011C267.694 49.0229 266.838 49.2339 265.845 49.2339ZM265.858 47.1245C266.309 47.1245 266.687 46.9967 266.989 46.741C267.292 46.481 267.52 46.1273 267.673 45.6799C267.831 45.2325 267.91 44.7232 267.91 44.1522C267.91 43.5812 267.831 43.0719 267.673 42.6245C267.52 42.1771 267.292 41.8234 266.989 41.5634C266.687 41.3035 266.309 41.1735 265.858 41.1735C265.402 41.1735 265.018 41.3035 264.707 41.5634C264.4 41.8234 264.168 42.1771 264.01 42.6245C263.857 43.0719 263.78 43.5812 263.78 44.1522C263.78 44.7232 263.857 45.2325 264.01 45.6799C264.168 46.1273 264.4 46.481 264.707 46.741C265.018 46.9967 265.402 47.1245 265.858 47.1245ZM277.67 39.2239V41.2694H271.758V39.2239H277.67ZM273.1 36.8717H275.823V46.0251C275.823 46.2765 275.861 46.4725 275.938 46.6131C276.015 46.7495 276.121 46.8454 276.258 46.9008C276.398 46.9562 276.56 46.9839 276.743 46.9839C276.871 46.9839 276.999 46.9732 277.127 46.9519C277.255 46.9263 277.353 46.9072 277.421 46.8944L277.849 48.9207C277.713 48.9633 277.521 49.0123 277.274 49.0677C277.027 49.1273 276.726 49.1636 276.373 49.1763C275.716 49.2019 275.141 49.1146 274.647 48.9143C274.157 48.714 273.775 48.4029 273.503 47.981C273.23 47.5592 273.096 47.0265 273.1 46.383V36.8717ZM283.813 49.2339C282.803 49.2339 281.934 49.0293 281.205 48.6202C280.481 48.2069 279.922 47.6231 279.53 46.8688C279.138 46.1103 278.942 45.2133 278.942 44.1778C278.942 43.1678 279.138 42.2815 279.53 41.5187C279.922 40.7559 280.474 40.1614 281.186 39.7353C281.902 39.3092 282.741 39.0961 283.704 39.0961C284.352 39.0961 284.955 39.2005 285.513 39.4093C286.076 39.6138 286.566 39.9228 286.983 40.3361C287.405 40.7495 287.733 41.2694 287.968 41.8958C288.202 42.518 288.319 43.2467 288.319 44.0819V44.8298H280.029V43.1423H285.756C285.756 42.7502 285.671 42.4029 285.501 42.1004C285.33 41.7978 285.094 41.5613 284.791 41.3908C284.493 41.2161 284.145 41.1288 283.749 41.1288C283.336 41.1288 282.969 41.2246 282.65 41.4164C282.334 41.6039 282.087 41.8575 281.908 42.1771C281.729 42.4924 281.638 42.844 281.633 43.2317V44.8361C281.633 45.3219 281.723 45.7417 281.902 46.0954C282.085 46.4491 282.343 46.7218 282.675 46.9136C283.008 47.1053 283.402 47.2012 283.858 47.2012C284.16 47.2012 284.437 47.1586 284.689 47.0734C284.94 46.9881 285.155 46.8603 285.334 46.6898C285.513 46.5194 285.65 46.3106 285.743 46.0634L288.262 46.2296C288.134 46.8347 287.872 47.3631 287.476 47.8148C287.084 48.2623 286.577 48.6117 285.954 48.8631C285.336 49.1103 284.623 49.2339 283.813 49.2339ZM290.096 49.0421V39.2239H292.819V49.0421H290.096ZM291.464 37.9583C291.059 37.9583 290.712 37.8241 290.422 37.5556C290.137 37.2829 289.994 36.9569 289.994 36.5776C289.994 36.2026 290.137 35.8809 290.422 35.6124C290.712 35.3397 291.059 35.2033 291.464 35.2033C291.869 35.2033 292.214 35.3397 292.5 35.6124C292.79 35.8809 292.934 36.2026 292.934 36.5776C292.934 36.9569 292.79 37.2829 292.5 37.5556C292.214 37.8241 291.869 37.9583 291.464 37.9583ZM297.724 43.366V49.0421H295.001V39.2239H297.596V40.9562H297.711C297.928 40.3852 298.293 39.9334 298.804 39.6011C299.315 39.2644 299.935 39.0961 300.664 39.0961C301.346 39.0961 301.94 39.2452 302.447 39.5435C302.955 39.8418 303.349 40.268 303.63 40.8219C303.911 41.3717 304.052 42.0279 304.052 42.7907V49.0421H301.329V43.2765C301.333 42.6756 301.18 42.2069 300.869 41.8702C300.558 41.5293 300.129 41.3589 299.584 41.3589C299.217 41.3589 298.893 41.4377 298.612 41.5954C298.335 41.7531 298.118 41.9832 297.96 42.2857C297.807 42.584 297.728 42.9441 297.724 43.366Z" fill="black"/>
<path d="M262.267 79.3537V93.8991H259.192V82.2727H259.106L255.775 84.3608V81.6335L259.376 79.3537H262.267ZM271.427 94.2187C270.205 94.214 269.154 93.9133 268.274 93.3167C267.398 92.7201 266.723 91.856 266.249 90.7244C265.781 89.5928 265.549 88.2315 265.553 86.6406C265.553 85.0544 265.788 83.7026 266.257 82.5852C266.73 81.4678 267.405 80.6179 268.281 80.0355C269.161 79.4484 270.21 79.1548 271.427 79.1548C272.644 79.1548 273.69 79.4484 274.566 80.0355C275.447 80.6226 276.124 81.4749 276.597 82.5923C277.071 83.705 277.305 85.0544 277.301 86.6406C277.301 88.2362 277.064 89.5999 276.59 90.7315C276.122 91.8631 275.449 92.7272 274.573 93.3238C273.697 93.9204 272.649 94.2187 271.427 94.2187ZM271.427 91.669C272.26 91.669 272.926 91.25 273.423 90.4119C273.92 89.5738 274.166 88.3167 274.161 86.6406C274.161 85.5374 274.048 84.6188 273.82 83.8849C273.598 83.151 273.281 82.5994 272.869 82.2301C272.462 81.8608 271.981 81.6761 271.427 81.6761C270.598 81.6761 269.936 82.0904 269.438 82.919C268.941 83.7476 268.69 84.9881 268.686 86.6406C268.686 87.758 268.797 88.6908 269.019 89.4389C269.247 90.1823 269.566 90.741 269.978 91.115C270.39 91.4843 270.873 91.669 271.427 91.669ZM285.197 94.2187C283.975 94.214 282.924 93.9133 282.043 93.3167C281.167 92.7201 280.492 91.856 280.019 90.7244C279.55 89.5928 279.318 88.2315 279.323 86.6406C279.323 85.0544 279.557 83.7026 280.026 82.5852C280.5 81.4678 281.174 80.6179 282.05 80.0355C282.931 79.4484 283.98 79.1548 285.197 79.1548C286.413 79.1548 287.46 79.4484 288.336 80.0355C289.216 80.6226 289.894 81.4749 290.367 82.5923C290.84 83.705 291.075 85.0544 291.07 86.6406C291.07 88.2362 290.833 89.5999 290.36 90.7315C289.891 91.8631 289.219 92.7272 288.343 93.3238C287.467 93.9204 286.418 94.2187 285.197 94.2187ZM285.197 91.669C286.03 91.669 286.695 91.25 287.192 90.4119C287.689 89.5738 287.936 88.3167 287.931 86.6406C287.931 85.5374 287.817 84.6188 287.59 83.8849C287.367 83.151 287.05 82.5994 286.638 82.2301C286.231 81.8608 285.751 81.6761 285.197 81.6761C284.368 81.6761 283.705 82.0904 283.208 82.919C282.711 83.7476 282.46 84.9881 282.455 86.6406C282.455 87.758 282.566 88.6908 282.789 89.4389C283.016 90.1823 283.336 90.741 283.748 91.115C284.16 91.4843 284.643 91.669 285.197 91.669Z" fill="#EF4316"/>
</svg>
